<?xml version="1.0" encoding="utf-8"?>
<!-- Generator: Adobe Illustrator 22.0.0, SVG Export Plug-In . SVG Version: 6.00 Build 0)  -->
<svg version="1.1" id="Слой_1" xmlns="http://www.w3.org/2000/svg" xmlns:xlink="http://www.w3.org/1999/xlink" x="0px" y="0px"
	 viewBox="0 0 707.8 99.5" style="enable-background:new 0 0 707.8 99.5;" xml:space="preserve">
<style type="text/css">
	.st0{fill:#FFFFFF;stroke:#F7931E;stroke-miterlimit:10;}
</style>
<g>
	<polyline class="st0" points="52.4,82.3 84.6,99.3 78.5,63.4 104.5,38 68.5,32.7 52.4,0.1 	"/>
	<polyline class="st0" points="52.4,82.3 20.2,99.3 26.3,63.4 0.3,38 36.3,32.7 52.4,0.1 	"/>
</g>
<g>
	<polyline class="st0" points="203.1,82.3 235.4,99.3 229.2,63.4 255.3,38 219.3,32.7 203.1,0.1 	"/>
	<polyline class="st0" points="203.2,82.3 170.9,99.3 177.1,63.4 151,38 187.1,32.7 203.2,0.1 	"/>
</g>
<g>
	<polyline class="st0" points="353.9,82.3 386.1,99.3 380,63.4 406,38 370,32.7 353.9,0.1 	"/>
	<polyline class="st0" points="353.9,82.3 321.7,99.3 327.8,63.4 301.8,38 337.8,32.7 353.9,0.1 	"/>
</g>
<g>
	<polyline class="st0" points="504.6,82.3 536.9,99.3 530.7,63.4 556.8,38 520.8,32.7 504.6,0.1 	"/>
	<polyline class="st0" points="504.7,82.3 472.4,99.3 478.6,63.4 452.5,38 488.6,32.7 504.7,0.1 	"/>
</g>
<g>
	<polyline class="st0" points="655.4,82.3 687.6,99.3 681.5,63.4 707.5,38 671.5,32.7 655.4,0.1 	"/>
	<polyline class="st0" points="655.4,82.3 623.2,99.3 629.3,63.4 603.3,38 639.3,32.7 655.4,0.1 	"/>
</g>
</svg>
