<?xml version="1.0" encoding="utf-8"?>
<!-- Generator: Adobe Illustrator 22.0.0, SVG Export Plug-In . SVG Version: 6.00 Build 0)  -->
<svg version="1.1" id="Слой_1" xmlns="http://www.w3.org/2000/svg" xmlns:xlink="http://www.w3.org/1999/xlink" x="0px" y="0px"
	 viewBox="0 0 818 127.5" style="enable-background:new 0 0 818 127.5;" xml:space="preserve">
<style type="text/css">
	.st0{fill:none;stroke:#FCEE21;stroke-width:0.75;stroke-miterlimit:10;}
</style>
<polygon class="st0" points="238,0.8 258.5,42.3 304.2,49 271.1,81.2 278.9,126.8 238,105.3 197.1,126.8 204.9,81.2 171.8,49 
	217.6,42.3 "/>
<polygon class="st0" points="67,0.8 87.5,42.3 133.2,49 100.1,81.2 107.9,126.8 67,105.3 26.1,126.8 33.9,81.2 0.8,49 46.6,42.3 "/>
<polygon class="st0" points="409,0.8 429.5,42.3 475.2,49 442.1,81.2 449.9,126.8 409,105.3 368.1,126.8 375.9,81.2 342.8,49 
	388.6,42.3 "/>
<polygon class="st0" points="580,0.8 600.5,42.3 646.2,49 613.1,81.2 620.9,126.8 580,105.3 539.1,126.8 546.9,81.2 513.8,49 
	559.6,42.3 "/>
<polygon class="st0" points="751,0.8 771.5,42.3 817.2,49 784.1,81.2 791.9,126.8 751,105.3 710.1,126.8 717.9,81.2 684.8,49 
	730.6,42.3 "/>
</svg>
